<svg version="1.2" baseProfile="tiny-ps" xmlns="http://www.w3.org/2000/svg" viewBox="0 0 32 36" width="32" height="36">
	<title>Simon says</title>
	<style>
		tspan { white-space:pre }
		.shp0 { fill: #ffffff } 
	</style>
	<path id="Simon says" class="shp0" d="M16.2 5.34C22.02 5.34 26.76 10.1 26.76 15.93C26.76 21.77 22.02 26.52 16.23 26.53L16.1 26.52C15.98 26.51 15.87 26.5 15.75 26.5L15.04 26.47L14.36 26.67L7.27 28.79L8.13 25.4L8.6 23.54L7.51 21.95C6.28 20.18 5.63 18.09 5.63 15.93C5.63 10.1 10.37 5.34 16.2 5.34M16.2 1.11C8.02 1.11 1.39 7.75 1.39 15.93C1.39 19.07 2.37 21.97 4.02 24.36L1.33 35L15.57 30.73C15.78 30.74 15.99 30.76 16.2 30.76C24.37 30.76 31 24.12 31 15.93C31 7.75 24.37 1.11 16.2 1.11L16.2 1.11Z" />
</svg>