<svg version="1.2" baseProfile="tiny-ps" xmlns="http://www.w3.org/2000/svg" viewBox="0 0 37 36" width="37" height="36">
	<title>Search (and thou shall find)</title>
	<style>
		tspan { white-space:pre }
		.shp0 { fill: #f1fbff } 
	</style>
	<path id="Search (and thou shall find)" class="shp0" d="M14.38 5.24C19.03 5.24 22.81 9.04 22.81 13.71C22.81 15.47 22.27 17.16 21.24 18.61L20.42 19.78L19.25 20.61C17.81 21.64 16.13 22.18 14.38 22.18C9.73 22.18 5.95 18.38 5.95 13.71C5.95 9.04 9.73 5.24 14.38 5.24M14.38 1C7.39 1 1.73 6.69 1.73 13.71C1.73 20.73 7.39 26.42 14.38 26.42C17.11 26.42 19.63 25.54 21.69 24.06L31.85 34.27C32.26 34.68 32.8 34.89 33.34 34.89C33.88 34.89 34.42 34.68 34.83 34.27C35.66 33.44 35.66 32.1 34.83 31.27L24.68 21.06C26.15 18.99 27.02 16.45 27.02 13.71C27.02 6.69 21.36 1 14.38 1L14.38 1Z" />
</svg>