<svg version="1.2" baseProfile="tiny-ps" xmlns="http://www.w3.org/2000/svg" viewBox="0 0 37 36" width="37" height="36">
	<title>Write copy</title>
	<style>
		tspan { white-space:pre }
		.shp0 { fill: #ffffff } 
	</style>
	<path id="Write copy" class="shp0" d="M27.51 6.09L30.54 9.12L17.94 22.18L14.44 22.18L14.44 18.69L27.51 6.09M27.54 1C27 1 26.46 1.21 26.05 1.62L10.2 16.89L10.2 26.42L19.74 26.42L19.74 26.42L35.02 10.59C35.84 9.76 35.84 8.42 35.02 7.6L29.04 1.62C28.62 1.21 28.08 1 27.54 1L27.54 1ZM31.4 29.6C31.4 30.18 30.92 30.65 30.34 30.65L7.02 30.65C6.43 30.65 5.96 30.18 5.96 29.6L5.96 6.3C5.96 5.71 6.43 5.24 7.02 5.24L12.32 5.24C13.49 5.24 14.44 4.29 14.44 3.12L14.44 3.12C14.44 1.95 13.49 1 12.32 1L3.84 1C2.67 1 1.72 1.95 1.72 3.12L1.72 32.77C1.72 33.94 2.67 34.89 3.84 34.89L33.52 34.89C34.69 34.89 35.64 33.94 35.64 32.77L35.64 24.3C35.64 23.13 34.69 22.18 33.52 22.18L33.52 22.18C32.35 22.18 31.4 23.13 31.4 24.3L31.4 29.6Z" />
</svg>