<svg version="1.2" baseProfile="tiny-ps" xmlns="http://www.w3.org/2000/svg" viewBox="0 0 73 71" width="73" height="71">
	<title>Write copy 3</title>
	<style>
		tspan { white-space:pre }
		.shp0 { fill: #ffffff } 
	</style>
	<path id="Write copy 3" class="shp0" d="M54.46 11.37L60.62 17.53L34.98 44.12L27.86 44.12L27.86 37.01L54.46 11.37M54.51 1.01C53.41 1.01 52.31 1.43 51.47 2.27L19.24 33.34L19.24 52.75L38.64 52.75L38.64 52.75L69.72 20.52C71.4 18.84 71.4 16.11 69.72 14.43L57.55 2.27C56.71 1.43 55.61 1.01 54.51 1.01L54.51 1.01ZM62.36 59.21C62.36 60.4 61.39 61.37 60.2 61.37L12.77 61.37C11.58 61.37 10.62 60.4 10.62 59.21L10.62 11.79C10.62 10.59 11.58 9.63 12.77 9.63L23.55 9.63C25.93 9.63 27.86 7.7 27.86 5.32L27.86 5.32C27.86 2.94 25.93 1.01 23.55 1.01L6.31 1.01C3.92 1.01 1.99 2.94 1.99 5.32L1.99 65.68C1.99 68.06 3.92 69.99 6.31 69.99L66.67 69.99C69.05 69.99 70.98 68.06 70.98 65.68L70.98 48.43C70.98 46.05 69.05 44.12 66.67 44.12L66.67 44.12C64.29 44.12 62.36 46.05 62.36 48.43L62.36 59.21Z" />
</svg>